<svg viewBox="0 0 200 280" xmlns="http://www.w3.org/2000/svg">
  <!-- 背景 -->
  <rect width="200" height="280" fill="#f5f5f5"/>
  
  <!-- 头发后层 - 深棕色长直发 -->
  <path d="M 52 70 Q 47 30 100 25 Q 153 30 148 70 L 151 115 Q 155 160 148 195 L 52 195 Q 45 160 49 115 Z" 
        fill="#4A3728" stroke="#2d2d2d" stroke-width="2"/>
  <!-- 两侧长发后层 -->
  <path d="M 52 70 Q 44 115 50 175" fill="none" stroke="#4A3728" stroke-width="16" stroke-linecap="round"/>
  <path d="M 148 70 Q 156 115 150 175" fill="none" stroke="#4A3728" stroke-width="16" stroke-linecap="round"/>
  
  <!-- 身体/衣服 - 绿色吊带裙 丰满版 -->
  <!-- 左肩带 -->
  <rect x="68" y="128" width="8" height="25" fill="#90EE90" stroke="#2d2d2d" stroke-width="2"/>
  <!-- 右肩带 -->
  <rect x="124" y="128" width="8" height="25" fill="#90EE90" stroke="#2d2d2d" stroke-width="2"/>
  <!-- 裙子主体 - 宽肩80px，胸部隆起 -->
  <path d="M 60 148 
           Q 55 165 52 185
           Q 48 210 45 240
           L 42 280
           L 158 280
           L 155 240
           Q 152 210 148 185
           Q 145 165 140 148
           Q 120 165 100 155
           Q 80 165 60 148 Z" 
        fill="#90EE90" stroke="#2d2d2d" stroke-width="2"/>
  <!-- 胸部隆起 -->
  <ellipse cx="85" cy="165" rx="18" ry="15" fill="#7CFC00" opacity="0.3"/>
  <ellipse cx="115" cy="165" rx="18" ry="15" fill="#7CFC00" opacity="0.3"/>
  <!-- 衣服褶皱阴影 -->
  <path d="M 65 190 Q 75 215 70 240" fill="none" stroke="#228B22" stroke-width="2" opacity="0.5"/>
  <path d="M 135 190 Q 125 215 130 240" fill="none" stroke="#228B22" stroke-width="2" opacity="0.5"/>
  <path d="M 85 210 Q 100 235 115 210" fill="none" stroke="#228B22" stroke-width="2" opacity="0.3"/>
  
  <!-- 脖子 -->
  <ellipse cx="100" cy="115" rx="14" ry="16" fill="#D4A574" stroke="#2d2d2d" stroke-width="2"/>
  
  <!-- 项链 - 金色链子 + 爱心吊坠 -->
  <!-- 链子路径 - 更宽以适应丰满身材 -->
  <path id="chain-path" d="M65 110 Q100 140 135 110" fill="none" stroke="#FFD700" stroke-width="3"/>
  <!-- 吊坠组 -->
  <g id="pendant-group" transform="translate(100, 125)">
    <path d="M0 10 Q-10 0 -10 -6 Q-10 -12 0 -12 Q10 -12 10 -6 Q10 0 0 10" fill="#FF69B4" stroke="#C71585" stroke-width="1.5"/>
  </g>
  <!-- 脖子参考点 -->
  <circle id="neck-center" cx="100" cy="110" r="3" fill="none"/>
  
  <!-- 头部 - 大头小身比例 -->
  <!-- 脸型 -->
  <ellipse cx="100" cy="70" rx="48" ry="52" fill="#D4A574" stroke="#2d2d2d" stroke-width="2"/>
  
  <!-- 耳朵 -->
  <ellipse cx="52" cy="70" rx="9" ry="13" fill="#D4A574" stroke="#2d2d2d" stroke-width="2"/>
  <ellipse cx="148" cy="70" rx="9" ry="13" fill="#D4A574" stroke="#2d2d2d" stroke-width="2"/>
  
  <!-- 头发前层 - 刘海 -->
  <path d="M 55 45 Q 68 56 80 45 Q 92 56 100 45 Q 108 56 120 45 Q 132 56 145 45" 
        fill="none" stroke="#4A3728" stroke-width="10" stroke-linecap="round"/>
  
  <!-- 眉毛 -->
  <path d="M 72 58 Q 80 55 88 58" fill="none" stroke="#3D2914" stroke-width="2" stroke-linecap="round"/>
  <path d="M 112 58 Q 120 55 128 58" fill="none" stroke="#3D2914" stroke-width="2" stroke-linecap="round"/>
  
  <!-- 眼睛 - 深棕色 -->
  <circle cx="80" cy="72" r="7" fill="#4A3728" stroke="#2d2d2d" stroke-width="1.5"/>
  <circle cx="120" cy="72" r="7" fill="#4A3728" stroke="#2d2d2d" stroke-width="1.5"/>
  <!-- 眼睛高光 -->
  <circle cx="82" cy="70" r="2.5" fill="white"/>
  <circle cx="122" cy="70" r="2.5" fill="white"/>
  
  <!-- 腮红 -->
  <ellipse cx="64" cy="88" rx="8" ry="5" fill="#CD853F" opacity="0.5"/>
  <ellipse cx="136" cy="88" rx="8" ry="5" fill="#CD853F" opacity="0.5"/>
  
  <!-- 鼻子 -->
  <path d="M 100 80 L 97 88 L 103 88" fill="none" stroke="#B8956A" stroke-width="1.5" stroke-linecap="round"/>
  
  <!-- 嘴巴 - 可爱微笑 -->
  <path d="M 88 100 Q 100 108 112 100" fill="none" stroke="#A0522D" stroke-width="2.5" stroke-linecap="round"/>
</svg>